HIERARCHY
ROOT root
{
	OFFSET	0	13.1	24.9
	CHANNELS 6  Xposition Yposition Zposition Xrotation Yrotation Zrotation
	JOINT spine_1
	{
		OFFSET	0	9.99999	0
		CHANNELS 3  Xrotation Yrotation Zrotation
		JOINT spine_2
		{
			OFFSET	0	112	-10
			CHANNELS 3  Xrotation Yrotation Zrotation
			JOINT spine_3
			{
				OFFSET	0	206.5	19.3
				CHANNELS 3  Xrotation Yrotation Zrotation
				JOINT spine_4
				{
					OFFSET	0	110.4	14.6
					CHANNELS 3  Xrotation Yrotation Zrotation
					JOINT neck_1
					{
						OFFSET	0	71.8	-50.3
						CHANNELS 3  Xrotation Yrotation Zrotation
						JOINT neck_2
						{
							OFFSET	0	86.2	-25.8
							CHANNELS 3  Xrotation Yrotation Zrotation
							JOINT head_ee
							{
								OFFSET	0	179.8	-8.7
								CHANNELS 3  Xrotation Yrotation Zrotation
								End Site
								{
									OFFSET	1	0	0
								}
							}
						}
					}
					JOINT left_clavicle
					{
						OFFSET	-43.2	22.4	-70.8
						CHANNELS 3  Xrotation Yrotation Zrotation
						JOINT left_shoulder
						{
							OFFSET	-93.9	-5.79999	48.7
							CHANNELS 3  Xrotation Yrotation Zrotation
							JOINT left_elbow
							{
								OFFSET	-291.4	-30.8	15.2
								CHANNELS 3  Xrotation Yrotation Zrotation
								JOINT left_lowarm_twist
								{
									OFFSET	-110.7	-3.89999	13.6
									CHANNELS 3  Xrotation Yrotation Zrotation
									JOINT left_hand
									{
										OFFSET	-110.7	-3.89999	13.6
										CHANNELS 3  Xrotation Yrotation Zrotation
										JOINT left_ee
										{
											OFFSET	-80.8	-5.10001	12.1
											CHANNELS 3  Xrotation Yrotation Zrotation
											End Site
											{
												OFFSET	1	0	0
											}
										}
									}
								}
							}
						}
					}
					JOINT right_clavicle
					{
						OFFSET	43.2	22.4	-70.8
						CHANNELS 3  Xrotation Yrotation Zrotation
						JOINT right_shoulder
						{
							OFFSET	93.9	-5.79999	48.7
							CHANNELS 3  Xrotation Yrotation Zrotation
							JOINT right_elbow
							{
								OFFSET	291.4	-30.8	15.2
								CHANNELS 3  Xrotation Yrotation Zrotation
								JOINT right_lowarm_twist
								{
									OFFSET	110.7	-3.89999	13.6
									CHANNELS 3  Xrotation Yrotation Zrotation
									JOINT right_hand
									{
										OFFSET	110.7	-3.89999	13.6
										CHANNELS 3  Xrotation Yrotation Zrotation
										JOINT right_ee
										{
											OFFSET	80.8	-5.10001	12.1
											CHANNELS 3  Xrotation Yrotation Zrotation
											End Site
											{
												OFFSET	1	0	0
											}
										}
									}
								}
							}
						}
					}
				}
			}
		}
	}
	JOINT left_hip
	{
		OFFSET	-82.8	-127.5	0.300001
		CHANNELS 3  Xrotation Yrotation Zrotation
		JOINT left_knee
		{
			OFFSET	-28.2	-396.7	2.2
			CHANNELS 3  Xrotation Yrotation Zrotation
			JOINT left_ankle
			{
				OFFSET	-11.7	-411.3	35.4
				CHANNELS 3  Xrotation Yrotation Zrotation
				JOINT left_toes
				{
					OFFSET	0	-60	-88.6
					CHANNELS 3  Xrotation Yrotation Zrotation
					JOINT left_foot_ee
					{
						OFFSET	-22.5	-16.5	-42.2
						CHANNELS 3  Xrotation Yrotation Zrotation
						End Site
						{
							OFFSET	1	0	0
						}
					}
				}
			}
		}
	}
	JOINT right_hip
	{
		OFFSET	82.8	-127.5	0.300001
		CHANNELS 3  Xrotation Yrotation Zrotation
		JOINT right_knee
		{
			OFFSET	28.2	-396.7	2.2
			CHANNELS 3  Xrotation Yrotation Zrotation
			JOINT right_ankle
			{
				OFFSET	11.7	-411.3	35.4
				CHANNELS 3  Xrotation Yrotation Zrotation
				JOINT right_toes
				{
					OFFSET	0	-60	-88.6
					CHANNELS 3  Xrotation Yrotation Zrotation
					JOINT right_foot_ee
					{
						OFFSET	22.5	-16.5	-42.2
						CHANNELS 3  Xrotation Yrotation Zrotation
						End Site
						{
							OFFSET	1	0	0
						}
					}
				}
			}
		}
	}
}
MOTION
Frames: 6
Frame Time: 0.02
3574.42 741.953 -1474.73 -29.7622631797 84.9692443161 36.1541459829 0.387695 -0.449355 -2.66492 0.391603 -0.278931 -2.68809 0.406397 0.273305 -2.68867 0.396342 -0.154591 -2.69809 -8.22878 11.6828 11.6777 -7.89144 13.6106 14.0486 -0.0 0.0 -0.0 9.35777 10.9331 17.5723 -6.73701 -20.8071 67.7011 0.317979 -8.95174 0.0248909 -12.8802 -0.627522 1.51915 1.06349 -1.88416 6.35056 -0.0 0.0 -0.0 5.46327 13.5534 -9.93423 -19.3992 9.14118 -63.2538 1.51099 36.8124 -0.502847 13.9116 -0.278813 1.75086 -0.0989804 -20.3406 -7.60942 0.0 0.0 0.0 -0.144385 12.2551 -0.172059 0.691485 -0.0290912 -0.102124 27.7891 7.57486 -3.64796 -18.8232 0.0 0.0 -0.0 0.0 -0.0 5.67844 -4.44086 -3.65653 -3.21124 -0.118833 -0.478433 8.95586 29.5213 1.60916 11.6784 -0.0 -0.0 0.0 0.0 0.0 
3574.42 741.953 -1474.73 -29.3268082743 84.9011534382 35.7169842679 0.387695 -0.449355 -2.66492 0.391603 -0.278931 -2.68809 0.406397 0.273305 -2.68867 0.396342 -0.154591 -2.69809 -8.22878 11.6828 11.6777 -7.89144 13.6106 14.0486 -0.0 0.0 -0.0 9.35777 10.9331 17.5723 -6.73701 -20.8071 67.7011 0.317979 -8.95174 0.0248909 -12.8802 -0.627522 1.51915 1.06349 -1.88416 6.35056 -0.0 0.0 -0.0 5.46327 13.5534 -9.93423 -19.3992 9.14118 -63.2538 1.51099 36.8124 -0.502847 13.9116 -0.278813 1.75086 -0.0989804 -20.3406 -7.60942 0.0 0.0 0.0 -0.144385 12.2551 -0.172059 0.691485 -0.0290912 -0.102124 27.7891 7.57486 -3.64796 -18.8232 0.0 0.0 -0.0 0.0 -0.0 5.67844 -4.44086 -3.65653 -3.21124 -0.118833 -0.478433 8.95586 29.5213 1.60916 11.6784 -0.0 -0.0 0.0 0.0 0.0 
3573.22677023 743.923 -1476.31893131 -28.6512244219 84.5701024633 34.9326173676 0.394023 -0.460903 -2.70377 0.398044 -0.287987 -2.72759 0.413509 0.272126 -2.72922 0.403152 -0.162152 -2.73795 -8.35322 11.6382 11.7603 -8.0116 13.5029 14.1297 -0.0 0.0 -0.0 9.35018 11.1313 17.5384 -6.73825 -20.9862 67.4509 0.314104 -8.84437 0.0242914 -12.9854 -0.634035 1.53093 1.04306 -1.72033 6.28006 -0.0 0.0 -0.0 5.48567 13.2705 -10.0007 -19.3189 9.074 -63.0001 1.495 36.5205 -0.493299 14.1103 -0.279696 1.77623 -0.0879781 -20.3263 -7.66973 0.0 0.0 0.0 -0.395211 11.5689 -0.178065 0.687345 -0.0289134 -0.101514 27.7241 7.67878 -3.64087 -18.9775 0.0 0.0 -0.0 0.0 -0.0 5.75568 -4.44469 -3.55152 -3.17184 -0.117538 -0.472525 9.04188 29.5091 1.62376 11.7223 -0.0 -0.0 0.0 0.0 0.0 
3573.13480558 742.337 -1476.30221987 -21.0917145209 83.0978440322 27.2896110962 0.378171 -0.459113 -2.69595 0.382169 -0.286698 -2.71967 0.39754 0.272538 -2.72113 0.387244 -0.160469 -2.73002 -8.97749 11.2585 12.3959 -8.59541 12.5156 14.7134 -0.0 0.0 -0.0 9.07499 10.9673 17.0535 -7.10051 -21.4796 67.645 0.357812 -10.0515 0.0314665 -13.0237 -0.636408 1.53522 1.37114 -1.59295 8.55126 -0.0 0.0 -0.0 5.4012 12.3303 -9.88319 -19.6466 9.69378 -62.5475 1.59278 38.2711 -0.552688 13.8611 -0.278575 1.74441 -0.202094 -21.0642 -7.27379 0.0 0.0 0.0 -0.484806 11.6374 0.0719825 1.05931 -0.0450682 -0.156306 26.9356 10.7898 -3.56189 -18.6106 0.0 0.0 -0.0 0.0 -0.0 5.65718 -4.44266 -3.82549 -3.3398 -0.12303 -0.497716 9.39887 28.6393 1.66617 11.9107 -0.0 -0.0 0.0 0.0 0.0 
3570.78388763 743.376 -1478.23291119 -23.2463614392 82.4705636449 29.2989915137 0.392693 -0.496682 -2.85461 0.397172 -0.314107 -2.8804 0.414933 0.27752 -2.88415 0.403371 -0.181264 -2.89179 -8.80308 11.7902 13.052 -8.37617 13.0028 15.4548 -0.0 0.0 -0.0 9.31661 11.0243 17.488 -8.00916 -23.0181 67.3505 0.388887 -10.9043 0.0371179 -12.9282 -0.63049 1.52453 1.45695 -2.3144 8.83826 -0.0 0.0 -0.0 5.47667 11.1927 -10.1133 -19.9692 9.95134 -61.5635 1.60565 38.4956 -0.560681 13.7826 -0.278194 1.73439 -0.363393 -21.9389 -6.66265 0.0 0.0 0.0 -0.26212 11.6798 0.119078 1.25841 -0.0538614 -0.185591 28.3918 11.6859 -3.73005 -18.4143 0.0 0.0 -0.0 0.0 -0.0 5.91841 -3.07066 -3.70159 -2.198 -0.0842398 -0.326779 9.83287 29.5042 1.7597 11.8128 -0.0 -0.0 0.0 0.0 0.0 
3570.48157008 742.809 -1480.40133756 -18.4695485846 80.5857622363 24.3075833234 0.383219 -0.365272 -2.77901 0.387496 -0.187767 -2.79661 0.398396 0.385138 -2.77633 0.387645 -0.0579863 -2.8023 -9.11172 11.6692 13.5572 -8.64807 12.5126 15.941 -0.0 0.0 -0.0 9.06633 10.6413 17.0682 -8.07887 -23.4829 67.2165 0.371555 -10.4292 0.0339097 -12.8026 -0.622729 1.51045 1.64211 -1.88382 10.2752 -0.0 0.0 -0.0 5.40411 10.4068 -10.0075 -19.6671 10.1212 -61.4619 1.66391 39.494 -0.597343 13.8875 -0.2787 1.74778 -0.396189 -21.9227 -6.46389 0.0 0.0 0.0 -0.218503 11.7109 0.204358 1.41443 -0.0608238 -0.20852 28.4825 13.2799 -3.75133 -18.4102 0.0 0.0 -0.0 0.0 -0.0 5.69344 -4.13905 -3.90084 -1.46308 -0.0574715 -0.21717 9.59441 29.0962 1.70955 11.8545 -0.0 -0.0 0.0 0.0 0.0 
